<svg width="220" height="220" viewBox="0 0 220 220" fill="none" xmlns="http://www.w3.org/2000/svg">
<g clip-path="url(#clip0_2165_705)">
<path d="M217.5 110C217.5 169.371 169.371 217.5 110 217.5C50.6294 217.5 2.5 169.371 2.5 110C2.5 50.6294 50.6294 2.5 110 2.5C169.371 2.5 217.5 50.6294 217.5 110Z" fill="black" stroke="white" stroke-width="5"/>
<path d="M110.662 131.431L131.491 164.122L150.731 152.972L123.376 109.857L110.662 131.431Z" fill="white"/>
<path d="M168.251 139.857L168.237 130.923L138.347 84.3691L127.258 103.185L156.112 149.851L166.545 143.805C167.568 142.975 168.188 141.754 168.252 140.439L168.251 139.857Z" fill="white"/>
<path d="M43 148.284L57.7332 156.773L106.759 78.1486L98.4384 77.9296C91.349 77.8298 83.7126 79.6722 80.2072 85.3941L52.3669 128.546L43 142.936V148.284V148.284Z" fill="white"/>
<path d="M135.057 78.1484L113.128 78.2288L63.5137 160.101L80.8552 170.085L85.571 162.087L135.057 78.1484Z" fill="white"/>
<path d="M177.492 78.0351C177.309 73.4487 174.825 69.2503 170.936 66.8064L116.418 35.4543C112.57 33.5168 107.764 33.514 103.91 35.4534C103.455 35.6834 50.8932 66.1661 50.8932 66.1661C50.1652 66.5154 49.4648 66.9312 48.8061 67.4024C45.3339 69.8906 43.2171 73.7582 43 78.0074V142.936L52.3669 128.545L52.2838 78.4463C52.2949 78.2633 52.318 78.0822 52.3503 77.9048C52.5619 76.7259 53.2197 75.6744 54.2111 74.963C54.4587 74.7865 107.918 43.8418 108.088 43.7578C109.345 43.1258 110.941 43.1193 112.2 43.7384L166.012 74.6923C167.285 75.5026 168.083 76.8774 168.154 78.3798V140.441C168.089 141.757 167.569 142.976 166.545 143.808L156.112 149.853L150.729 152.973L131.489 164.124L111.976 175.431C110.926 175.81 109.697 175.789 108.654 175.365L85.5688 162.087L80.853 170.086L101.599 182.03C102.286 182.421 102.896 182.767 103.398 183.049C104.175 183.485 104.705 183.776 104.891 183.866C106.366 184.582 108.487 185 110.399 185C112.152 185 113.861 184.678 115.479 184.045L172.153 151.223C175.407 148.703 177.32 144.902 177.492 140.784V78.0351V78.0351Z" fill="white"/>
</g>
<defs>
<clipPath id="clip0_2165_705">
<rect width="220" height="220" fill="white"/>
</clipPath>
</defs>
</svg>
